HIERARCHY
ROOT hip
{
	OFFSET 0.000000 0.000000 0.000000 
	CHANNELS 6 Xposition Yposition Zposition Xrotation Zrotation Yrotation
	JOINT abdomen
	{
		OFFSET 0.000000 3.402643 0.000000 
		CHANNELS 3 Xrotation Zrotation Yrotation
		JOINT chest
		{
			OFFSET 0.000000 8.438565 -0.680529 
			CHANNELS 3 Xrotation Zrotation Yrotation
			JOINT neck
			{
				OFFSET 0.000000 10.207942 -0.272212 
				CHANNELS 3 Xrotation Zrotation Yrotation
				JOINT head
				{
					OFFSET 0.000000 3.130431 0.000000 
					CHANNELS 3 Xrotation Zrotation Yrotation
					End Site
					{
						OFFSET 0.000000 3.130435 0.000000 
					}
				}
			}
			JOINT lCollar
			{
				OFFSET 3.470700 6.669187 -0.816635 
				CHANNELS 3 Yrotation Zrotation Xrotation
				JOINT lShldr
				{
					OFFSET 3.198488 0.000000 0.000000 
					CHANNELS 3 Zrotation Yrotation Xrotation
					JOINT lForeArm
					{
						OFFSET 10.139888 0.000000 0.000000 
						CHANNELS 3 Yrotation Zrotation Xrotation
						JOINT lHand
						{
							OFFSET 8.370511 0.000000 0.000000 
							CHANNELS 3 Zrotation Yrotation Xrotation
							End Site
							{
								OFFSET 4.083176 0.000000 0.000000 
							}
						}
					}
				}
			}
			JOINT rCollar
			{
				OFFSET -3.470700 6.669187 -0.816635 
				CHANNELS 3 Yrotation Zrotation Xrotation
				JOINT rShldr
				{
					OFFSET -3.198488 0.000000 0.000000 
					CHANNELS 3 Zrotation Yrotation Xrotation
					JOINT rForeArm
					{
						OFFSET -10.139888 0.000000 0.000000 
						CHANNELS 3 Yrotation Zrotation Xrotation
						JOINT rHand
						{
							OFFSET -8.370511 0.000000 0.000000 
							CHANNELS 3 Zrotation Yrotation Xrotation
							End Site
							{
								OFFSET -4.083176 0.000000 0.000000 
							}
						}
					}
				}
			}
		}
	}
	JOINT lThigh
	{
		OFFSET 5.308129 -1.633274 1.361059 
		CHANNELS 3 Xrotation Zrotation Yrotation
		JOINT lShin
		{
			OFFSET -2.041588 -20.007561 0.000000 
			CHANNELS 3 Xrotation Zrotation Yrotation
			JOINT lFoot
			{
				OFFSET 0.000000 -19.190928 -1.224953 
				CHANNELS 3 Xrotation Yrotation Zrotation
				End Site
				{
					OFFSET 0.000000 -2.449906 4.627600 
				}
			}
		}
	}
	JOINT rThigh
	{
		OFFSET -5.308129 -1.633274 1.361059 
		CHANNELS 3 Xrotation Zrotation Yrotation
		JOINT rShin
		{
			OFFSET 2.041588 -20.007561 0.000000 
			CHANNELS 3 Xrotation Zrotation Yrotation
			JOINT rFoot
			{
				OFFSET 0.000000 -19.190928 -1.224953 
				CHANNELS 3 Xrotation Yrotation Zrotation
				End Site
				{
					OFFSET 0.000000 -2.449906 4.627600 
				}
			}
		}
	}
}
MOTION
Frames: 13
Frame Time: 0.016667
-11.351553 38.005753 -14.569887 -5.266280 8.003620 -18.342300 -13.761700 -5.853130 2.398500 18.027300 0.214634 0.312785 3.004150 11.229100 -1.397560 6.342470 9.665140 -0.555962 2.000000 -2.000000 0.000000 100.442001 -115.040001 8.896440 120.029999 -0.141540 0.136620 0.053045 -0.051263 -155.554993 -2.000000 2.000000 0.000000 -104.001999 110.073997 -9.614190 -128.671997 0.135519 0.089362 -0.086449 0.081567 -167.477997 -19.156366 -1.758550 -8.127540 65.016045 1.247051 3.963404 4.783950 -33.166031 2.732148 -43.030163 -4.180406 9.007872 82.532166 0.688963 -4.627566 -9.599762 7.923278 1.973812 
-11.533990 38.321064 -14.488778 -5.282120 6.865530 -18.112600 -13.568100 -5.509610 2.064620 17.949100 0.478020 0.193075 3.167300 11.467100 -1.682890 6.392710 9.742760 -0.710606 2.000000 -2.000000 0.000000 100.570000 -115.919998 9.090670 120.742996 -0.139968 0.135698 0.053380 -0.052246 -155.925995 -2.000000 2.000000 0.000000 -102.987999 110.699997 -9.341650 -128.604004 0.135638 0.089457 -0.086394 0.081473 -167.438995 -18.415239 -0.796557 -9.181276 64.395416 1.336498 3.915874 4.925939 -32.533398 2.846497 -43.362797 -3.606664 9.186223 78.085190 0.273395 -4.535759 -10.661462 4.403442 1.508238 
-11.772259 38.706123 -14.327798 -4.893040 6.314980 -17.961300 -13.556000 -5.357920 1.668380 18.183399 0.702522 0.000184 3.647100 11.318800 -1.635380 6.501240 9.692990 -0.743330 2.000000 -2.000000 0.000000 100.686996 -116.886002 8.864850 120.791000 -0.139861 0.135634 0.053282 -0.051962 -155.817993 -2.000000 2.000000 0.000000 -100.808998 111.875000 -7.839240 -127.959000 0.136759 0.090341 -0.086966 0.082437 -167.839996 -18.351439 -1.069843 -9.508296 65.299034 1.245738 3.951527 -2.697331 -24.361975 -0.317227 -42.518623 -2.545500 11.458772 70.508972 -0.410023 -4.305329 -10.977909 0.206660 0.622251 
-12.010416 39.091061 -14.166817 -4.515060 5.763430 -17.817301 -13.543500 -5.215710 1.273610 18.427500 0.917335 -0.190349 4.125960 11.180000 -1.579750 6.599830 9.643280 -0.768107 2.000000 -2.000000 0.000000 100.794998 -117.862000 8.648840 120.839996 -0.139754 0.135570 0.053185 -0.051677 -155.710999 -2.000000 2.000000 0.000000 -98.813698 113.070000 -6.512500 -127.323997 0.137872 0.091200 -0.087532 0.083373 -168.229996 -18.388474 -1.350065 -9.806342 66.202377 1.168898 3.993826 -9.390926 -15.910311 -2.133182 -41.679070 -1.486417 13.818846 63.119690 -1.050053 -4.035295 -11.525942 -3.865714 -0.204010 
-12.150952 39.273422 -13.960227 -4.203000 4.597030 -18.003201 -13.734300 -4.995720 0.789853 18.359301 0.575748 -0.363887 4.570420 10.671200 -1.271390 6.657820 9.496390 -0.657489 2.000000 -2.000000 0.000000 99.926102 -118.975998 8.950180 120.508003 -0.140484 0.136004 0.053407 -0.052324 -155.955002 -2.000000 2.000000 0.000000 -97.872200 114.264000 -5.634810 -126.612000 0.139135 0.092150 -0.088175 0.084422 -168.669998 -18.304371 -1.178025 -7.848113 68.323952 0.954600 4.086658 -11.448431 -6.388332 -0.407617 -40.133850 0.114322 16.302338 58.447315 -1.406775 -3.819624 -10.219222 -4.358158 -0.352857 
-12.291374 39.455791 -13.753636 -3.883880 3.419880 -18.200399 -13.933800 -4.776100 0.303499 18.300800 0.224435 -0.545950 5.012500 10.153900 -0.954226 6.715680 9.339740 -0.557386 2.000000 -2.000000 0.000000 99.095901 -120.089996 9.212540 120.166000 -0.141238 0.136445 0.063388 -0.062710 -156.188995 -2.000000 2.000000 0.000000 -97.017197 115.457001 -4.835990 -125.889000 0.140426 0.093097 -0.088812 0.085443 -169.098999 -18.201366 -1.001416 -5.902025 70.474876 0.726058 4.174514 -13.798068 3.029981 1.665248 -38.411598 1.607140 18.843899 53.695465 -1.741666 -3.598332 -8.971993 -4.811786 -0.462323 
-12.278455 39.541504 -13.646130 -3.899930 2.406530 -18.113100 -13.938000 -4.337400 -0.653588 18.310499 0.468390 -0.955871 4.424410 9.749440 -0.512902 6.418260 9.283910 -0.343680 2.000000 -2.000000 0.000000 97.751701 -120.510002 9.397120 120.332001 -0.140871 0.136231 0.053336 -0.052117 -155.876999 -2.000000 2.000000 0.000000 -97.870003 115.750000 -4.612090 -125.878998 0.140443 0.093110 -0.089207 0.086067 -169.363007 -17.855923 -1.489981 -3.143855 71.262566 0.595556 4.220447 -13.582475 1.144969 1.002209 -37.746822 2.172127 17.839836 53.106770 -1.769523 -3.570471 -8.474895 -4.708846 -0.413264 
-12.265424 39.627346 -13.538398 -3.907390 1.383500 -18.014400 -13.958200 -3.888980 -1.613030 18.329901 0.712352 -1.365590 3.829080 9.342730 -0.074425 6.120940 9.227820 -0.121197 2.000000 -2.000000 0.000000 96.427101 -120.940002 9.553750 120.498001 -0.140505 0.136016 0.053053 -0.051289 -155.563995 -2.000000 2.000000 0.000000 -98.722900 116.054001 -4.387230 -125.869003 0.140461 0.093122 -0.089604 0.096455 -169.626999 -17.552195 -1.986758 -0.405948 72.109398 0.457444 4.274181 -13.405317 -0.771873 0.320199 -37.112350 2.747618 16.837517 52.567379 -1.790213 -3.547165 -8.005295 -4.596337 -0.351473 
-12.151512 39.785774 -13.501439 -3.818830 0.896443 -18.907499 -13.836100 -3.443800 -2.169090 18.554199 1.229720 -1.595720 3.074730 8.841520 0.371963 5.812860 9.034870 0.126971 2.000000 -2.000000 0.000000 95.264099 -120.755997 10.208500 121.036003 -0.139325 0.135314 0.052402 -0.049315 -154.822006 -2.000000 2.000000 0.000000 -100.226997 116.071999 -4.758370 -126.142998 0.139971 0.092766 -0.089886 0.096892 -169.811996 -16.501215 -3.228095 3.384043 69.523979 0.569511 4.230710 -15.985479 -0.268960 0.337801 -36.679535 2.959247 16.460873 51.388786 -1.869210 -3.490680 -7.331882 -3.480633 -0.157933 
-12.037602 39.944195 -13.464478 -3.720790 0.399547 -19.801399 -13.723700 -2.984990 -2.715000 18.778500 1.737440 -1.831250 2.323730 8.346950 0.824838 5.495180 8.831910 0.383678 2.000000 -2.000000 0.000000 94.081497 -120.563004 10.871600 121.563004 -0.138173 0.134613 0.051776 -0.047333 -154.080002 -2.000000 2.000000 0.000000 -101.722000 116.110001 -5.129560 -126.406998 0.139500 0.092420 -0.090184 0.097350 -170.007996 -15.458984 -4.574229 7.146587 66.841019 0.687118 4.194504 -18.472725 0.281233 0.351622 -36.248276 3.161458 16.106369 50.220558 -1.928939 -3.432488 -6.671769 -2.361233 -0.009976 
-11.741591 40.360149 -13.486721 -2.548840 0.136583 -21.080299 -13.856800 -2.567500 -3.203470 18.827200 1.874150 -2.019440 2.001570 7.676940 1.300850 5.404720 8.568830 0.647119 2.000000 -2.000000 0.000000 93.933502 -120.387001 10.745100 122.070999 -0.137070 0.133928 0.051544 -0.046575 -153.796997 -2.000000 2.000000 0.000000 -102.688004 116.061996 -4.904830 -126.817001 0.138770 0.091878 -0.090094 0.097213 -169.949005 -15.200969 -5.744918 9.230463 63.332726 0.882282 4.101964 -22.173855 7.277771 3.781795 -36.300186 3.354523 17.043316 47.401054 -2.079154 -3.267799 -4.412223 -0.163839 0.068342 
-11.445692 40.776093 -13.508965 -1.367190 -0.107391 -22.351000 -13.989700 -2.141130 -3.696460 18.875900 2.010850 -2.197630 1.670690 7.007380 1.793890 5.324220 8.295900 0.922309 2.000000 -2.000000 0.000000 93.785400 -120.200996 10.618500 122.569000 -0.135994 0.133248 0.051315 -0.045816 -153.514008 -2.000000 2.000000 0.000000 -103.644997 116.024002 -4.680130 -127.237000 0.138027 0.091318 -0.090005 0.097075 -169.889999 -14.955553 -6.947092 11.319721 59.833378 1.061427 3.977954 -26.368366 14.077702 7.769857 -36.360291 3.563684 17.984783 44.600533 -2.229556 -3.121655 -2.182645 2.035728 0.059279 
-11.131674 41.288567 -13.673878 0.009766 -0.527344 -23.349800 -13.952800 -1.397510 -3.951730 18.836399 2.362220 -2.238830 1.075760 6.363450 1.918970 5.204610 8.062180 1.035960 2.000000 -2.000000 0.000000 93.553802 -119.342003 10.726700 122.666000 -0.135784 0.133113 0.051168 -0.045317 -153.328003 -2.000000 2.000000 0.000000 -105.462997 115.348000 -5.324000 -127.813004 0.137015 0.090541 -0.089398 0.096133 -169.490005 -15.683692 -6.741016 10.401552 57.950165 1.174282 3.897027 -25.061340 15.588831 8.095651 -36.462711 4.005835 19.834074 42.015774 -2.353107 -2.990172 0.231819 3.080119 -0.195464 
